<?xml version="1.0" encoding="UTF-8"?>
<svg width="95px" height="28px" viewBox="0 0 95 28" version="1.1" xmlns="http://www.w3.org/2000/svg" xmlns:xlink="http://www.w3.org/1999/xlink">
    <!-- Generator: Sketch 63.1 (92452) - https://sketch.com -->
    <title>_images / logo</title>
    <desc>Created with Sketch.</desc>
    <g id="_images-/-logo" stroke="none" stroke-width="1" fill="none" fill-rule="evenodd">
        <g id="编组" fill="#FFFFFF">
            <path d="M57.2023648,9.5202912 L57.2023648,12.2253152 C57.2023648,12.5250272 57.2339488,12.6034272 57.9962208,12.6034272 L60.4342368,12.6034272 C60.9917728,12.6034272 61.0979488,12.4804512 61.1848608,10.9438112 L61.1949408,10.7664032 L61.3369568,10.8730272 C61.5936608,11.0652192 62.1388768,11.2665952 62.5214688,11.3584352 L62.6012128,11.3776992 L62.5940448,11.4592352 C62.4184288,13.4763552 61.9950688,13.9984992 60.5343648,13.9984992 L57.8671968,13.9984992 C56.1580768,13.9984992 55.6639328,13.6006752 55.6639328,12.2253152 L55.6639328,9.5202912 L57.2023648,9.5202912 Z M40.0233568,4.5013472 L41.4101408,4.5013472 L41.4101408,2.9136352 L40.0233568,2.9136352 L40.0233568,4.5013472 Z M40.0233568,7.4122272 L41.4101408,7.4122272 L41.4101408,5.7958432 L40.0233568,5.7958432 L40.0233568,7.4122272 Z M41.4101408,10.3515552 L41.1939808,10.3858272 C40.7923488,10.4494432 40.3999008,10.5117152 40.0231328,10.5665952 L40.0231328,8.7069472 L41.4101408,8.7069472 L41.4101408,10.3515552 Z M42.7908768,10.1340512 L42.7908768,2.9136352 L43.6512608,2.9136352 L43.6512608,1.5185632 L37.9397088,1.5185632 L37.9397088,2.9136352 L38.6710688,2.9136352 L38.6710688,10.7681952 C38.5100128,10.7944032 38.3559008,10.8145632 38.2089568,10.8336032 C38.0835168,10.8499552 37.9632288,10.8656352 37.8480928,10.8837792 L37.7484128,10.8994592 L38.0620128,12.3355232 L38.1525088,12.3191712 C38.9591328,12.1724512 40.1640288,11.9560672 41.4101408,11.7497632 L41.4101408,14.2852192 L42.7908768,14.2852192 L42.7908768,11.5015712 L43.6418528,11.3427552 L43.5585248,10.0061472 L42.7908768,10.1340512 Z M65.4007648,12.7425312 L65.4256288,12.8247392 L63.9568608,13.4449952 L63.9275168,13.3412832 C63.6703648,12.4347552 62.9154848,10.9962272 62.0918368,9.8428512 L62.0226208,9.7460832 L63.3910368,9.1690592 L63.4358368,9.2286432 C64.1331488,10.1629472 65.0663328,11.6438112 65.4007648,12.7425312 L65.4007648,12.7425312 Z M48.2284768,8.9222112 L44.3210208,8.9222112 L44.3210208,7.5555872 L49.0039648,7.5555872 L49.2470048,7.4747232 L50.2301408,8.0873632 L50.1963168,8.1628512 C49.6909728,9.2969632 48.7978848,10.7888032 47.7997408,12.1675232 C48.3971488,12.6849632 48.8113248,13.0561312 49.0996128,13.3325472 L49.1771168,13.4066912 L48.0488288,14.3360672 L47.9879008,14.2679712 C47.2460128,13.4389472 45.7156448,12.1168992 44.5873568,11.2394912 L44.4885728,11.1628832 L45.5496608,10.3710432 L45.6350048,10.4357792 C45.9669728,10.6880032 46.3401568,10.9718112 46.7077408,11.2706272 C47.0878688,10.7500512 47.7273888,9.8350112 48.2284768,8.9222112 L48.2284768,8.9222112 Z M55.0799648,6.9389152 L58.0298208,6.9389152 L58.0298208,5.5521312 L55.0799648,5.5521312 L55.0799648,6.9389152 Z M55.0799648,4.2717472 L58.0298208,4.2717472 L58.0298208,2.9136352 L55.0799648,2.9136352 L55.0799648,4.2717472 Z M59.5113568,6.9389152 L62.3751968,6.9389152 L62.3751968,5.5521312 L59.5113568,5.5521312 L59.5113568,6.9389152 Z M59.5113568,4.2717472 L62.3751968,4.2717472 L62.3751968,2.9136352 L59.5113568,2.9136352 L59.5113568,4.2717472 Z M56.9602208,9.1497952 L57.0764768,9.2120672 C58.1740768,9.7982752 59.3758368,10.6586592 59.9342688,11.2578592 L60.0003488,11.3290912 L61.0869728,10.2756192 L61.0170848,10.2070752 C60.4169888,9.6204192 59.2535328,8.8317152 58.1982688,8.2912032 L63.8849568,8.2912032 L63.8849568,1.5615712 L53.6277728,1.5615712 L53.6277728,8.2912032 L57.8633888,8.2912032 L56.9602208,9.1497952 Z M66.9837728,11.7414752 C66.8543008,11.3812832 66.5292768,10.8250912 66.3469408,10.5256032 L66.3108768,10.4662432 L66.3563488,10.4136032 C67.1551328,9.4925152 68.0426208,7.8815072 68.5876128,6.3695072 L66.5194208,6.3695072 L66.5194208,4.9316512 L68.8136288,4.9316512 L68.8136288,3.2193952 C68.3456928,3.3040672 67.8822368,3.3726112 67.4328928,3.4391392 L67.0220768,3.5002912 L67.0079648,3.4062112 C66.9674208,3.1358432 66.7879968,2.6755232 66.6450848,2.4038112 L66.5832608,2.2866592 L66.7143008,2.2653792 C68.5867168,1.9645472 70.2830688,1.5326752 71.2514208,1.1106592 L71.3228768,1.0795232 L72.1967008,2.3321312 L72.0844768,2.3762592 C71.6192288,2.5599392 71.0491488,2.7295072 70.2949408,2.9082592 L70.2949408,4.9316512 L72.3024288,4.9316512 L72.3024288,6.3695072 L70.2949408,6.3695072 L70.2949408,6.4367072 C70.7539168,6.9189792 71.9330528,8.3364512 72.1980448,8.6988832 L72.2401568,8.7564512 L71.2982368,9.9844192 L71.2319328,9.8421792 C71.0502688,9.4533152 70.6457248,8.7828832 70.2949408,8.2325152 L70.2949408,14.2708832 L68.8136288,14.2708832 L68.8136288,8.8411232 C68.2912608,10.0473632 67.7070688,11.0757472 67.1475168,11.7690272 L67.0411168,11.9007392 L66.9837728,11.7414752 Z M48.3505568,6.7055072 L48.4110368,6.7881632 L47.2827488,7.4955552 L47.2321248,7.4146912 C46.9680288,6.9917792 46.3757728,6.2624352 45.8242848,5.6802592 L45.7387168,5.5899872 L46.8419168,4.9957152 L46.8918688,5.0445472 C47.4442528,5.5819232 48.0436768,6.2868512 48.3505568,6.7055072 L48.3505568,6.7055072 Z M72.4686368,6.5104032 L72.3700768,6.4427552 L73.3594848,5.5371232 L73.4215328,5.5783392 C74.2451808,6.1275872 75.3701088,7.0047712 75.8940448,7.6328672 L75.9507168,7.7007392 L74.9068768,8.7114272 L74.8419168,8.6267552 C74.3945888,8.0439072 73.3744928,7.1342432 72.4686368,6.5104032 L72.4686368,6.5104032 Z M72.9968288,2.7946912 L72.9009568,2.7241312 L73.9210528,1.8377632 L73.9817568,1.8794272 C74.7310368,2.3921632 75.7708448,3.2406752 76.2831328,3.8922912 L76.3377888,3.9621792 L75.2605728,4.9397152 L75.1983008,4.8525792 C74.7469408,4.2204512 73.7407328,3.3428192 72.9968288,2.7946912 L72.9968288,2.7946912 Z M71.8976608,10.1394272 L76.6292128,9.3484832 L76.6292128,1.0730272 L78.1389728,0.8066912 L78.1389728,9.1016352 L79.6854688,8.8462752 L79.9164128,10.2814432 L78.1389728,10.5849632 L78.1389728,14.2708832 L76.6292128,14.2708832 L76.6292128,10.8468192 L72.1281568,11.6039392 L71.8976608,10.1394272 Z M89.6908768,10.4001632 C88.9525728,9.6322912 88.3538208,8.7165792 87.9091808,7.6745312 L91.6360928,7.6745312 C91.1789088,8.7011232 90.5252768,9.6170592 89.6908768,10.4001632 L89.6908768,10.4001632 Z M94.2291168,12.9792992 C92.9352928,12.6390432 91.7904288,12.1072672 90.8240928,11.3985312 C92.0973088,10.1544352 93.0190688,8.5703072 93.5647328,6.6878112 L93.5887008,6.6049312 L92.6225888,6.2185312 L92.3835808,6.2651232 L90.4426208,6.2651232 L90.4426208,4.4910432 L93.7549088,4.4910432 L93.7549088,3.0816352 L90.4426208,3.0816352 L90.4426208,0.8113952 L88.9328608,1.0728032 L88.9328608,3.0816352 L85.7204768,3.0816352 L85.7204768,4.4910432 L88.9328608,4.4910432 L88.9328608,6.2651232 L85.9789728,6.2651232 L85.9789728,7.6745312 L86.3736608,7.6745312 C86.9168608,9.1034272 87.6260448,10.3011552 88.5395168,11.3324512 C87.4728288,12.0373792 86.2742048,12.5575072 84.9752288,12.8787232 L84.8258208,12.9156832 L84.9257248,13.0328352 C85.1689888,13.3186592 85.4906528,13.8835872 85.6272928,14.2121952 L85.6602208,14.2908192 L85.7417568,14.2670752 C87.2105248,13.8412512 88.5171168,13.2097952 89.6270368,12.3895072 C90.6901408,13.2642272 91.8983968,13.8882912 93.3178848,14.2959712 L93.3915808,14.3170272 L93.4280928,14.2498272 C93.6202848,13.8945632 93.9865248,13.3840672 94.2667488,13.1437152 L94.4047328,13.0254432 L94.2291168,12.9792992 Z M55.1480608,9.8863072 C54.6532448,11.5557792 54.1467808,12.7331232 53.5993248,13.4859872 L53.5495968,13.5540832 L52.1870048,12.7989792 L52.2575648,12.7109472 C53.0872608,11.6738272 53.5948448,10.0426592 53.7744928,9.3894752 L53.8020448,9.2891232 L55.1731488,9.8011872 L55.1480608,9.8863072 Z M85.8492768,8.4798112 L84.2046688,8.9555872 L84.2046688,12.6556192 C84.2046688,13.4022112 84.0326368,13.7760672 83.5913568,13.9888672 C83.1953248,14.1801632 82.6003808,14.2303392 81.8343008,14.2303392 C81.7301408,14.2303392 81.6228448,14.2294432 81.5121888,14.2278752 L81.4340128,14.2267552 L81.4199008,14.1496992 C81.3625568,13.8336352 81.1911968,13.2852832 81.0276768,12.9723552 L80.9530848,12.8292192 L81.1143648,12.8330272 C81.7408928,12.8471392 82.3407648,12.8471392 82.5096608,12.8332512 C82.6866208,12.8330272 82.7092448,12.7971872 82.7092448,12.6556192 L82.7092448,9.3829792 C82.1638048,9.5361952 81.7007968,9.6638752 81.2505568,9.7794592 L81.1593888,9.8029792 L80.7653728,8.3409312 L80.8610208,8.3183072 C81.3871968,8.1937632 82.0204448,8.0423392 82.7092448,7.8770272 L82.7092448,5.1650592 L80.9452448,5.1650592 L80.9452448,3.7413152 L82.7092448,3.7413152 L82.7092448,1.0728032 L84.2046688,0.8111712 L84.2046688,3.7269792 L85.7101728,3.7269792 L85.7101728,5.1650592 L84.2046688,5.1650592 L84.2046688,7.4702432 L85.6664928,7.0869792 L85.8492768,8.4798112 Z M43.9314848,7.1371552 L43.8533088,7.2003232 L43.7943968,7.1187872 C43.6151968,6.8712672 43.1790688,6.4476832 42.9089248,6.2344352 L42.8119328,6.1578272 L42.9104928,6.0834592 C44.5069408,4.8796832 45.9618208,2.9176672 46.7077408,0.9632672 L46.7393248,0.8806112 L48.1099808,1.2932192 L48.0768288,1.3875232 C47.9946208,1.6204832 47.8857568,1.8550112 47.7786848,2.0828192 C48.6437728,3.5948192 50.0119648,5.1392992 51.1951328,5.9371872 L51.3051168,6.0113312 L51.1996128,6.0919712 C50.9032608,6.3177632 50.5108128,6.7682272 50.3027168,7.0737632 L50.2444768,7.1591072 L50.1640608,7.0939232 C49.1334368,6.2557152 47.9952928,4.8752032 47.0988448,3.3795552 C46.2252448,4.8687072 45.1323488,6.1654432 43.9314848,7.1371552 L43.9314848,7.1371552 Z M52.9132128,24.0119712 C52.9132128,25.5291232 51.8321888,26.5095712 50.0348128,26.5095712 C48.0145568,26.5095712 47.0130528,24.5518112 46.9709408,24.4684832 L48.0701088,23.9080352 C48.0772768,23.9214752 48.7848928,25.2208992 50.0348128,25.2394912 C51.1575008,25.2562912 51.6433568,24.7144352 51.6433568,24.0966432 C51.6433568,23.5789792 51.3438688,23.0489952 49.7315168,22.6323552 C48.6713248,22.3584032 47.4747168,21.7858592 47.4951008,20.2783392 C47.5092128,19.2098592 48.4150688,18.1281632 50.1192608,18.1281632 C51.1583968,18.1281632 52.0924768,18.6433632 52.6820448,19.5416032 L51.6567968,20.2144992 C51.1243488,19.5250272 50.6116128,19.3980192 50.0345888,19.3980192 C49.3437728,19.3980192 48.7996768,19.7396192 48.7649568,20.2106912 C48.7356128,20.6078432 49.0740768,21.1001952 50.2534368,21.4124512 C51.5349408,21.7520352 52.9132128,22.2490912 52.9132128,24.0119712 L52.9132128,24.0119712 Z M81.6978848,18.3508192 L82.9677408,18.1279392 L82.9677408,26.3402272 L81.6978848,26.3402272 L81.6978848,18.3508192 Z M77.2369248,18.2587552 L80.5843808,26.3402272 L79.2099168,26.3402272 L77.0413728,21.1051232 L74.8730528,26.3402272 L73.4983648,26.3402272 L76.8458208,18.2587552 C76.9179488,18.0844832 77.1647968,18.0844832 77.2369248,18.2587552 L77.2369248,18.2587552 Z M71.3269088,18.2972832 L72.5967648,18.2972832 L72.5967648,26.3402272 L71.5905568,26.3402272 L67.7287968,20.8721632 L67.7287968,26.3402272 L66.4589408,26.3402272 L66.4589408,18.2972832 L67.4651488,18.2972832 L71.3269088,23.7653472 L71.3269088,18.2972832 Z M53.7599328,18.2972832 L59.2627168,18.2972832 L59.2627168,19.5673632 L57.1463648,19.5673632 L57.1463648,26.3402272 L55.8762848,26.3402272 L55.8762848,19.5673632 L53.7599328,19.5673632 L53.7599328,18.2972832 Z M62.2260128,23.1688352 L62.2260128,21.8792672 L64.7657248,21.4314912 L64.7657248,22.7210592 L62.2260128,23.1688352 Z M65.4007648,25.7051872 L65.4007648,26.3402272 L60.3211168,26.3402272 L60.3211168,18.2972832 L65.1890848,18.2972832 L65.1890848,19.5673632 L61.5909728,19.5673632 L61.5909728,25.0701472 L64.7657248,25.0701472 C65.1165088,25.0701472 65.4007648,25.3544032 65.4007648,25.7051872 L65.4007648,25.7051872 Z M44.4471328,18.3508192 L45.7169888,18.1279392 L45.7169888,26.3402272 L44.4471328,26.3402272 L44.4471328,18.3508192 Z M43.1772768,25.7051872 L43.1772768,26.3402272 L38.7326688,26.3402272 L38.7326688,18.3508192 L40.0025248,18.1279392 L40.0025248,25.0701472 L42.5422368,25.0701472 C42.8930208,25.0701472 43.1772768,25.3544032 43.1772768,25.7051872 L43.1772768,25.7051872 Z M24.1189088,24.7298912 C22.0809568,24.1981152 18.2326368,23.3731232 13.9717088,23.3731232 C9.6243168,23.3731232 5.7061088,24.2319392 3.7024288,24.7619232 C3.1625888,24.9048352 2.7085408,24.3432672 2.9583008,23.8437472 L13.3911008,2.9779232 C13.6303328,2.4994592 14.3130848,2.4994592 14.5523168,2.9779232 L15.8248608,5.5230112 L8.8418848,19.4887392 C8.6579808,19.8565472 8.9926368,20.2704992 9.3902368,20.1652192 C10.8668448,19.7747872 13.7537568,19.1417632 16.9571808,19.1417632 C19.2578848,19.1417632 21.3928288,19.4683552 22.9617248,19.7969632 L24.9291168,23.7317472 C25.2006048,24.2747232 24.7064608,24.8831072 24.1189088,24.7298912 L24.1189088,24.7298912 Z M17.4945568,8.8621792 L21.3175648,16.5081952 C21.4176928,16.7082272 21.2355808,16.9324512 21.0191968,16.8760032 C20.2681248,16.6800032 18.8504288,16.3760352 17.2806368,16.3760352 C15.6788128,16.3760352 14.2353568,16.6925472 13.4972768,16.8878752 C13.2983648,16.9402912 13.1310368,16.7335392 13.2231008,16.5494112 L17.0667168,8.8621792 C17.1549728,8.6858912 17.4063008,8.6858912 17.4945568,8.8621792 L17.4945568,8.8621792 Z M25.6080608,-0.0001568 L2.3302048,-0.0001568 C1.0433248,-0.0001568 -6.72e-05,1.0432352 -6.72e-05,2.3301152 L-6.72e-05,25.6079712 C-6.72e-05,26.8948512 1.0433248,27.9382432 2.3302048,27.9382432 L25.6080608,27.9382432 C26.8949408,27.9382432 27.9383328,26.8948512 27.9383328,25.6079712 L27.9383328,2.3301152 C27.9383328,1.0432352 26.8949408,-0.0001568 25.6080608,-0.0001568 L25.6080608,-0.0001568 Z" id="Fill-1"></path>
        </g>
    </g>
</svg>